<svg width="144" height="53" viewBox="0 0 144 53" fill="none" xmlns="http://www.w3.org/2000/svg"><path d="M60.13.963h3.399l.69 3.004h4.232v3.72h-3.725v8.52c0 1.73.731 2.595 2.201 2.595h1.524v3.712h-3.742c-3.056 0-4.582-1.666-4.58-4.999V.963zm9.858 15.767c0-3.801 2.641-5.702 7.924-5.702a22.7 22.7 0 014.236.354v-1.22c0-1.658-1.58-2.487-4.737-2.487-2.01.007-4.006.31-5.93.896V4.85a20.447 20.447 0 015.93-.897c6.219 0 9.329 2.036 9.329 6.107v12.45h-2.32l-1.982-1.31a10.355 10.355 0 01-5.063 1.31c-4.925 0-7.387-1.926-7.387-5.78zm7.924-2.169c-2.204 0-3.307.707-3.31 2.12-.003 1.414.921 2.12 2.773 2.117a7.823 7.823 0 004.773-1.448v-2.435a21.444 21.444 0 00-4.253-.354h.017zM94.385.963V22.51H89.79V.963h4.596zm18.651 14.091h-11.913c0 2.496 2 3.744 6 3.744 1.851 0 3.698-.178 5.517-.53v3.708a29.717 29.717 0 01-6.208.534c-6.604 0-9.906-3.162-9.906-9.487 0-6.037 3.023-9.056 9.07-9.056 6.046 0 8.526 3.696 7.44 11.087zm-11.913-3.425h7.599c.158-2.657-1.057-3.987-3.646-3.99-2.424 0-3.742 1.33-3.953 3.99zm14.299 10.881V3.967h3.558l.572 2.363c2.21-1.573 4.429-2.36 6.657-2.363 4.197 0 6.296 2.301 6.296 6.904v11.657h-4.597V10.826c0-2.047-.999-3.07-2.998-3.07-1.605 0-3.236.78-4.891 2.344v12.419l-4.597-.009zM135.569.963h3.404l.691 3.004h4.231v3.72h-3.725v8.52c0 1.73.731 2.595 2.201 2.595h1.524v3.712h-3.743c-3.055 0-4.583-1.666-4.583-4.999V.963zM60.13 43.931c0-3.801 2.634-5.702 7.903-5.702a22.63 22.63 0 014.235.354v-1.22c0-1.658-1.58-2.49-4.737-2.492a20.473 20.473 0 00-5.93.896v-3.72a20.613 20.613 0 015.93-.898c6.22 0 9.329 2.036 9.329 6.107v12.432h-2.32l-1.977-1.305a10.377 10.377 0 01-5.067 1.305c-4.914.012-7.369-1.907-7.366-5.757zm7.903-2.17c-2.205 0-3.308.707-3.311 2.121 0 1.408.924 2.116 2.774 2.116a7.824 7.824 0 004.772-1.448v-2.434a21.441 21.441 0 00-4.235-.355zm16.694-13.598v21.543h-4.596v-21.52l4.596-.023zm3.271 3.762a39.088 39.088 0 018.012-.758c6.413 0 9.62 2.937 9.62 8.81 0 6.489-2.935 9.732-8.805 9.729a10.542 10.542 0 01-4.236-.897v3.887h-4.591V31.925zm4.591 12.943a9.237 9.237 0 004.218.955c2.853 0 4.281-1.96 4.284-5.882 0-3.33-1.63-4.994-4.891-4.994a20.846 20.846 0 00-3.61.242v9.68zm15.186 4.838v-21.52h4.596v4.99a10.5 10.5 0 016.19-2.009c4.2 0 6.299 2.3 6.296 6.9v11.657h-4.596V38.018c0-2.05-1-3.074-2.998-3.071-1.606 0-3.236.781-4.892 2.344v12.415h-4.596zm19.495-5.775c0-3.801 2.642-5.702 7.925-5.702a22.587 22.587 0 014.231.354v-1.22c0-1.658-1.578-2.49-4.733-2.492a20.446 20.446 0 00-5.93.896v-3.72a20.588 20.588 0 015.93-.898c6.205.012 9.307 2.055 9.307 6.13V49.71h-2.325l-1.976-1.304a10.353 10.353 0 01-5.063 1.305c-4.911-.003-7.366-1.93-7.366-5.78zm7.925-2.17c-2.21 0-3.314.707-3.311 2.121 0 1.408.925 2.116 2.774 2.116a7.826 7.826 0 004.768-1.448v-2.434a21.41 21.41 0 00-4.258-.355h.027zM47.874 1.084h-7.211V49.83h7.211V1.084z" fill="#fff"/><path d="M23.941 49.832a23.631 23.631 0 01-13.3-4.106 24.286 24.286 0 01-8.818-10.938A24.792 24.792 0 01.46 20.703 24.517 24.517 0 017.01 8.221 23.807 23.807 0 0119.265 1.55a23.537 23.537 0 0113.831 1.386 24.036 24.036 0 0110.744 8.978 24.696 24.696 0 014.034 13.543c-.007 6.462-2.53 12.657-7.017 17.227s-10.57 7.14-16.916 7.15zm0-40.52c-3.134 0-6.199.946-8.805 2.72a16.08 16.08 0 00-5.838 7.243 16.415 16.415 0 00-.901 9.325 16.234 16.234 0 004.337 8.264 15.764 15.764 0 008.115 4.418 15.59 15.59 0 009.158-.919 15.915 15.915 0 007.113-5.944 16.351 16.351 0 002.67-8.967 16.31 16.31 0 00-4.648-11.407 15.728 15.728 0 00-11.2-4.733z" fill="#fff"/></svg>