<svg width="39" height="40" viewBox="0 0 39 40" fill="none" xmlns="http://www.w3.org/2000/svg"><path d="M19.416 39.605c-3.84 0-7.593-1.158-10.786-3.328a19.684 19.684 0 01-7.151-8.865A20.08 20.08 0 01.373 15.998 19.865 19.865 0 015.684 5.882a19.31 19.31 0 019.94-5.408A19.1 19.1 0 0126.84 1.598a19.49 19.49 0 018.712 7.276 20.004 20.004 0 013.272 10.975c-.006 5.238-2.052 10.258-5.69 13.962-3.639 3.703-8.572 5.787-13.718 5.794zm0-32.84c-2.543 0-5.028.768-7.141 2.205a13.033 13.033 0 00-4.734 5.87 13.295 13.295 0 00-.732 7.558 13.154 13.154 0 003.518 6.697 12.786 12.786 0 006.581 3.58c2.493.505 5.078.246 7.426-.744a12.904 12.904 0 005.769-4.818 13.245 13.245 0 00-1.604-16.511 12.759 12.759 0 00-9.083-3.837z" fill="#13100D"/></svg>