<svg width="144" height="53" viewBox="0 0 144 53" fill="none" xmlns="http://www.w3.org/2000/svg">
<path d="M60.1299 0.962891H63.5287L64.2199 3.96674H68.4508V7.68792H64.7262V16.2063C64.7262 17.9369 65.457 18.8022 66.9275 18.8022H68.4508V22.5144H64.7086C61.6532 22.5144 60.127 20.8481 60.1299 17.5154V0.962891Z" fill="white"/>
<path d="M69.9878 16.7309C69.9878 12.929 72.6294 11.0281 77.9125 11.0281C79.332 11.013 80.7498 11.1316 82.1478 11.3823V10.1628C82.1478 8.50398 80.5687 7.67455 77.4106 7.67455C75.4018 7.68234 73.4046 7.98432 71.4803 8.57123V4.85004C73.4041 4.26099 75.4017 3.95896 77.4106 3.95337C83.63 3.95337 86.7397 5.98881 86.7397 10.0597V22.51H84.4195L82.4384 21.2008C80.8859 22.0644 79.1444 22.5147 77.3754 22.51C72.4503 22.51 69.9878 20.5836 69.9878 16.7309ZM77.9125 14.561C75.7083 14.561 74.6047 15.2679 74.6017 16.6816C74.5988 18.0954 75.5233 18.8007 77.3754 18.7978C79.0777 18.8498 80.7511 18.342 82.1478 17.3496V14.9152C80.7449 14.656 79.3205 14.5373 77.8949 14.561H77.9125Z" fill="white"/>
<path d="M94.3854 0.962891V22.5099H89.7891V0.962891H94.3854Z" fill="white"/>
<path d="M113.036 15.0541H101.123C101.123 17.5499 103.123 18.7977 107.123 18.7977C108.974 18.7971 110.821 18.62 112.64 18.2687V21.9764C110.594 22.3714 108.514 22.5502 106.432 22.51C99.8283 22.51 96.5264 19.3477 96.5264 13.0232C96.5264 6.98559 99.5495 3.9668 105.596 3.9668C111.642 3.9668 114.122 7.66258 113.036 15.0541ZM101.123 11.6288H108.722C108.88 8.97171 107.665 7.64165 105.076 7.63866C102.652 7.63866 101.334 8.96873 101.123 11.6288Z" fill="white"/>
<path d="M115.422 22.51V3.9668H118.98L119.552 6.32953C121.762 4.75736 123.981 3.96979 126.209 3.9668C130.406 3.9668 132.505 6.26825 132.505 10.8712V22.5279H127.908V10.8263C127.908 8.77893 126.909 7.75523 124.91 7.75523C123.305 7.75523 121.674 8.53683 120.019 10.1V22.5189L115.422 22.51Z" fill="white"/>
<path d="M135.569 0.962891H138.973L139.664 3.96674H143.895V7.68792H140.17V16.2063C140.17 17.9369 140.901 18.8022 142.371 18.8022H143.895V22.5144H140.152C137.097 22.5144 135.569 20.8481 135.569 17.5154V0.962891Z" fill="white"/>
<path d="M60.1299 43.9315C60.1299 40.1296 62.7641 38.2286 68.0326 38.2286C69.452 38.2135 70.8699 38.3321 72.2679 38.5828V37.3633C72.2679 35.7045 70.6888 34.8736 67.5307 34.8706C65.5218 34.8766 63.5243 35.1786 61.6004 35.7673V32.0461C63.5247 31.4594 65.5219 31.1574 67.5307 31.1494C73.7501 31.1494 76.8598 33.1849 76.8598 37.2557V49.6881H74.5396L72.5629 48.3834C71.0083 49.2452 69.2654 49.694 67.4955 49.6881C62.5821 49.7001 60.127 47.7812 60.1299 43.9315ZM68.0326 41.7615C65.8283 41.7615 64.7247 42.4684 64.7218 43.8822C64.7218 45.2899 65.6464 45.9983 67.4955 45.9983C69.1977 46.0503 70.8712 45.5426 72.2679 44.5502V42.1157C70.8708 41.8576 69.4523 41.739 68.0326 41.7615Z" fill="white"/>
<path d="M84.7272 28.1633V49.7059H80.1309V28.1857L84.7272 28.1633Z" fill="white"/>
<path d="M87.9976 31.925C90.6365 31.3973 93.3211 31.1434 96.0103 31.1673C102.423 31.1673 105.63 34.1039 105.63 39.9771C105.63 46.466 102.695 49.709 96.8248 49.706C95.3678 49.7037 93.9266 49.3985 92.5895 48.8093V52.6964H87.9976V31.925ZM92.5895 44.8684C93.9032 45.5167 95.3475 45.8437 96.8072 45.8234C99.6601 45.8234 101.088 43.8627 101.091 39.9412C101.091 36.6116 99.4605 34.9468 96.1996 34.9468C94.9917 34.9227 93.7839 35.0037 92.5895 35.1889V44.8684Z" fill="white"/>
<path d="M107.775 49.7059V28.1858H112.371V33.1758C114.178 31.8647 116.343 31.1624 118.561 31.1672C122.761 31.1672 124.86 33.4672 124.857 38.0671V49.7238H120.261V38.0178C120.261 35.9674 119.261 34.9437 117.263 34.9467C115.657 34.9467 114.027 35.7283 112.371 37.2915V49.7059H107.775Z" fill="white"/>
<path d="M127.27 43.9315C127.27 40.1296 129.912 38.2286 135.195 38.2286C136.613 38.2135 138.029 38.3321 139.426 38.5828V37.3633C139.426 35.7045 137.848 34.8736 134.693 34.8706C132.684 34.8763 130.686 35.1783 128.763 35.7673V32.0461C130.687 31.4591 132.684 31.1571 134.693 31.1494C140.898 31.1614 144 33.2043 144 37.2782V49.7105H141.675L139.699 48.4058C138.146 49.268 136.404 49.7168 134.636 49.7105C129.725 49.7075 127.27 47.7812 127.27 43.9315ZM135.195 41.7615C132.985 41.7615 131.881 42.4684 131.884 43.8821C131.884 45.2899 132.809 45.9983 134.658 45.9983C136.358 46.0494 138.03 45.5416 139.426 44.5502V42.1157C138.021 41.8559 136.595 41.7372 135.168 41.7615H135.195Z" fill="white"/>
<path d="M47.8741 1.08374H40.6626V49.8313H47.8741V1.08374Z" fill="white"/>
<path d="M23.9414 49.8321C19.2069 49.833 14.5785 48.4041 10.6415 45.7262C6.70453 43.0483 3.63578 39.2416 1.82337 34.7875C0.0109602 30.3334 -0.4637 25.4321 0.459417 20.7033C1.38253 15.9745 3.66197 11.6307 7.00944 8.22124C10.3569 4.81175 14.6221 2.48971 19.2655 1.5488C23.909 0.607878 28.7221 1.09034 33.0963 2.93517C37.4705 4.78 41.2092 7.90433 43.8396 11.913C46.47 15.9218 47.874 20.6348 47.874 25.4561C47.867 31.9181 45.3435 38.1134 40.8569 42.6831C36.3703 47.2528 30.287 49.8238 23.9414 49.8321ZM23.9414 9.31153C20.8067 9.31153 17.7424 10.2581 15.136 12.0316C12.5295 13.8051 10.4981 16.3259 9.29847 19.2751C8.09887 22.2243 7.785 25.4695 8.39655 28.6004C9.00811 31.7313 10.5176 34.6071 12.7342 36.8644C14.9508 39.1216 17.7749 40.6588 20.8493 41.2816C23.9238 41.9043 27.1106 41.5847 30.0067 40.3631C32.9028 39.1415 35.3782 37.0728 37.1197 34.4186C38.8613 31.7643 39.7908 28.6438 39.7908 25.4516C39.785 21.1728 38.1133 17.071 35.1422 14.0454C32.1711 11.0198 28.1431 9.31746 23.9414 9.31153Z" fill="white"/>
</svg>
