<svg width="39" height="40" viewBox="0 0 39 40" fill="none" xmlns="http://www.w3.org/2000/svg">
<path d="M19.4156 39.6046C15.5761 39.6053 11.8227 38.4473 8.62989 36.277C5.43713 34.1068 2.94848 31.0217 1.47869 27.412C0.0088883 23.8023 -0.376044 19.8301 0.37257 15.9978C1.12118 12.1654 2.96972 8.64506 5.6844 5.8819C8.39908 3.11874 11.858 1.23689 15.6236 0.474345C19.3893 -0.288203 23.2926 0.102801 26.8399 1.59791C30.3872 3.09301 33.4191 5.62507 35.5523 8.87385C37.6855 12.1226 38.8241 15.9422 38.8241 19.8495C38.8184 25.0865 36.7719 30.1074 33.1334 33.8108C29.495 37.5143 24.5616 39.5979 19.4156 39.6046ZM19.4156 6.7655C16.8735 6.7655 14.3884 7.53265 12.2747 8.96995C10.161 10.4072 8.51356 12.4501 7.54072 14.8403C6.56789 17.2304 6.31335 19.8604 6.8093 22.3978C7.30524 24.9351 8.5294 27.2658 10.327 29.0952C12.1245 30.9245 14.4148 32.1703 16.9081 32.675C19.4014 33.1797 21.9857 32.9207 24.3344 31.9306C26.683 30.9406 28.6904 29.2641 30.1027 27.113C31.5151 24.9619 32.2689 22.433 32.2689 19.8459C32.2642 16.3782 30.9085 13.054 28.499 10.602C26.0896 8.14996 22.8231 6.77031 19.4156 6.7655Z" fill="#13100D"/>
</svg>
